<?xml version="1.0" encoding="utf-8"?>
<!-- Generator: Adobe Illustrator 15.0.2, SVG Export Plug-In . SVG Version: 6.00 Build 0)  -->
<!DOCTYPE svg PUBLIC "-//W3C//DTD SVG 1.1//EN" "http://www.w3.org/Graphics/SVG/1.1/DTD/svg11.dtd">
<svg version="1.1" id="Layer_1" xmlns="http://www.w3.org/2000/svg" xmlns:xlink="http://www.w3.org/1999/xlink" x="0px" y="0px"
	 width="850.394px" height="850.395px" viewBox="0 0 850.394 850.395" enable-background="new 0 0 850.394 850.395"
	 xml:space="preserve">
<g>
	<path fill="#FFFFFF" d="M0,0v850.395c241.419-62.941,527.332-108.271,850.394-108.516V0H0z M199.37,188.54h-95.834v50.438h85.48
		v31.06h-85.48v75.658H69.291V157.48H199.37V188.54z M323.34,345.695h-27.609l-2.389-18.052
		c-6.637,13.54-22.034,21.504-39.555,21.504c-29.467,0-47.784-19.91-47.784-49.377v-92.117h33.183v84.684
		c0,16.194,6.372,26.281,23.893,26.281c7.698,0,13.008-2.92,16.99-6.902c7.964-7.433,10.087-19.91,10.087-31.059v-73.003h33.184
		V345.695z M433.507,343.839c-9.291,2.389-18.582,3.715-28.404,3.714c-27.875,0-41.679-15.928-41.679-42.474v-70.083h-25.219
		v-27.343h25.219v-35.042l33.185-8.229v43.271h34.775v27.343h-34.775v67.164c0,10.618,4.777,15.132,15.396,15.132
		c6.902,0,12.478-0.265,21.501-1.328V343.839z M563.585,345.695h-27.607l-2.391-18.052c-6.637,13.54-22.033,21.504-39.555,21.504
		c-29.467,0-47.783-19.91-47.783-49.377v-92.117h33.182v84.684c0,16.194,6.373,26.281,23.895,26.281
		c7.697,0,13.008-2.92,16.99-6.902c7.961-7.433,10.086-19.91,10.086-31.059v-73.003h33.184V345.695z M611.9,276.143v69.552h-33.449
		V207.653h28.141l2.918,20.707c6.373-15.927,22.832-22.565,39.027-22.565c3.451,0,6.9,0.266,10.352,0.798v31.855
		c-3.717-0.798-7.697-1.328-11.416-1.329C624.111,237.119,611.9,253.843,611.9,276.143z M784.183,277.736
		c0,0-0.266,6.372-0.264,9.293h-92.383c-0.266,10.617,3.451,20.705,10.088,27.077c4.777,4.513,11.414,8.495,20.441,8.495
		c9.557,0,15.396-1.857,20.176-6.636c2.92-2.92,5.309-6.637,6.637-11.681h31.855c-0.797,8.231-6.371,19.115-11.68,25.485
		c-11.682,13.804-28.938,19.379-46.459,19.379c-18.848,0-32.65-6.637-43.535-16.99c-13.803-13.274-21.238-32.652-21.238-55.217
		c0-22.035,6.639-41.679,19.91-55.217c10.354-10.62,25.219-17.522,44.066-17.522c20.443,0,39.023,8.23,50.441,25.486
		C782.326,244.818,784.714,260.481,784.183,277.736z"/>
	<path fill="#FFFFFF" d="M721.533,230.749c-10.086,0-18.318,4.248-23.094,10.62c-4.781,6.105-6.904,12.476-7.17,21.502H751
		c-0.266-10.353-3.188-18.317-8.494-24.158C737.992,233.935,731.089,230.749,721.533,230.749z"/>
</g>
</svg>
