<?xml version="1.0" encoding="utf-8"?>
<!-- Generator: Adobe Illustrator 16.1.0, SVG Export Plug-In . SVG Version: 6.00 Build 0)  -->
<!DOCTYPE svg PUBLIC "-//W3C//DTD SVG 1.1//EN" "http://www.w3.org/Graphics/SVG/1.1/DTD/svg11.dtd">
<svg version="1.1" id="Layer_1" xmlns="http://www.w3.org/2000/svg" xmlns:xlink="http://www.w3.org/1999/xlink" x="0px" y="0px"
	 width="93.332px" height="113.333px" viewBox="0 0 93.332 113.333" enable-background="new 0 0 93.332 113.333"
	 xml:space="preserve">
<g>
	<g>
		<path fill="#FFFFFF" d="M24.48,10H0.333v83H28.44c20.27-3,27.893-18.847,27.893-42.15v-6.689C56.333,23.089,49.9,10,24.48,10z"/>
		<path fill="#FFFFFF" d="M42.598,0c19.65,6,27.735,22.809,27.735,48.174v0.335C70.333,67.597,66.208,86,54.708,93h38.625V0H42.598z
			"/>
	</g>
</g>
<g>
	<path fill="#FFFFFF" d="M21.816,101.633c-0.431-0.111-0.909-0.159-1.419-0.159c-1.897,0-2.774,1.147-2.774,3.173v0.669
		c0,2.472,1.037,3.604,2.934,3.604c0.478,0,0.973-0.064,1.435-0.191v-1.562h1.738v2.121c-0.51,0.557-1.658,1.195-3.333,1.195
		c-2.966,0-4.927-1.945-4.927-5.406v-0.031c0-3.174,1.754-5.215,4.768-5.215c1.754,0,2.87,0.574,3.364,1.102v2.152h-1.786V101.633z"
		/>
	<path fill="#FFFFFF" d="M25.134,106.29v-0.031c0-2.473,1.642-3.938,3.938-3.938c2.296,0,3.938,1.468,3.938,3.923v0.031
		c0,2.902-1.866,4.146-3.938,4.146C27,110.42,25.134,109.176,25.134,106.29z M30.97,106.513v-0.574c0-1.467-0.766-2.265-1.897-2.265
		c-1.132,0-1.882,0.798-1.882,2.265v0.574c0,1.944,0.83,2.583,1.882,2.583C30.125,109.096,30.97,108.458,30.97,106.513z"/>
	<path fill="#FFFFFF" d="M34.048,109.145c0-0.702,0.574-1.275,1.244-1.275c0.686,0,1.244,0.573,1.244,1.275
		c0,0.669-0.558,1.244-1.244,1.244C34.622,110.388,34.048,109.814,34.048,109.145z"/>
	<path fill="#FFFFFF" d="M38.082,100.056h4.863c2.966,0,4.608,1.754,4.608,4.959v0.032c0,3.539-1.818,5.197-4.911,5.197h-4.561
		v-1.435h0.909v-7.208h-0.909L38.082,100.056L38.082,100.056z M42.467,108.73c2.184,0,2.934-1.244,2.934-3.396v-0.75
		c0-1.787-0.574-2.854-2.615-2.854h-1.738v7H42.467z"/>
	<path fill="#FFFFFF" d="M55.081,101.713h-3.269v2.744h3.684v1.53h-3.684v2.774h3.396v-1.467h1.69v2.949h-8.053v-1.435h0.909v-7.208
		h-0.909v-1.546h7.941v3.028h-1.706V101.713z"/>
	<path fill="#FFFFFF" d="M63.453,101.57c-0.398-0.112-0.829-0.159-1.229-0.159c-1.021,0-1.832,0.287-1.832,1.371
		c0,0.463,0.158,0.812,0.668,1.037c0.957,0.446,2.615,0.43,3.572,1.068c0.812,0.51,1.133,1.275,1.133,2.359
		c0,2.232-1.658,3.237-3.779,3.237c-1.754,0-2.981-0.493-3.588-1.052v-2.201h1.754v1.516c0.511,0.144,1.068,0.238,1.658,0.238
		c1.164,0,1.93-0.415,1.93-1.516c0-0.479-0.159-0.78-0.622-1.004c-0.67-0.383-2.376-0.479-3.333-1.004
		c-0.909-0.51-1.292-1.371-1.292-2.521c0-2.185,1.754-3.108,3.571-3.108c1.483,0,2.584,0.398,3.125,0.908v2.152h-1.737
		L63.453,101.57L63.453,101.57z"/>
	<path fill="#FFFFFF" d="M67.105,100.056h4.065v1.546h-1.004v7.208h1.004v1.435h-4.065v-1.435h1.004v-7.208h-1.004V100.056z"/>
	<path fill="#FFFFFF" d="M77.357,104.838h3.795v4.306c-0.701,0.717-1.977,1.339-3.746,1.339c-2.902,0-4.928-1.882-4.928-5.391
		v-0.031c0-3.173,1.994-5.23,5.023-5.23c1.723,0,2.727,0.479,3.285,0.989v2.265h-1.77v-1.451c-0.416-0.096-0.877-0.16-1.371-0.16
		c-1.881,0-3.03,1.164-3.03,3.27v0.541c0,2.504,1.067,3.604,2.966,3.604c0.542,0,1.068-0.08,1.547-0.207v-2.296h-1.77v-1.547H77.357
		z"/>
	<path fill="#FFFFFF" d="M89.207,100.056h3.843v1.546h-0.909v8.643h-2.758l-4.05-8.354v6.92h1.308v1.435h-3.955v-1.435h0.91v-7.208
		h-0.91v-1.546h3.955l3.764,7.925v-6.378h-1.196L89.207,100.056L89.207,100.056z"/>
</g>
</svg>
